<svg width="24" height="25" viewBox="0 0 24 25" fill="none" xmlns="http://www.w3.org/2000/svg">
<g clip-path="url(#clip0_29_785)">
<path d="M12 2.98645C6.48 2.98645 2 7.46645 2 12.9865C2 18.5065 6.48 22.9865 12 22.9865C17.52 22.9865 22 18.5065 22 12.9865C22 7.46645 17.52 2.98645 12 2.98645ZM12 6.98645C13.93 6.98645 15.5 8.55645 15.5 10.4865C15.5 12.4165 13.93 13.9865 12 13.9865C10.07 13.9865 8.5 12.4165 8.5 10.4865C8.5 8.55645 10.07 6.98645 12 6.98645ZM12 20.9865C9.97 20.9865 7.57 20.1665 5.86 18.1065C7.55 16.7865 9.68 15.9865 12 15.9865C14.32 15.9865 16.45 16.7865 18.14 18.1065C16.43 20.1665 14.03 20.9865 12 20.9865Z" fill="white"/>
</g>
<defs>
<clipPath id="clip0_29_785">
<rect width="24" height="24" fill="white" transform="translate(0 0.98645)"/>
</clipPath>
</defs>
</svg>
