<svg width="25" height="24" viewBox="0 0 25 24" fill="none" xmlns="http://www.w3.org/2000/svg">
<path d="M21.5 1.5H12.5C12.1023 1.5004 11.721 1.65856 11.4398 1.93978C11.1586 2.221 11.0004 2.6023 11 3V10.5H3.5C3.1023 10.5004 2.721 10.6586 2.43978 10.9398C2.15856 11.221 2.0004 11.6023 2 12V22.5H23V3C22.9996 2.6023 22.8414 2.221 22.5602 1.93978C22.279 1.65856 21.8977 1.5004 21.5 1.5ZM7.25 21V15.75H10.25V21H7.25ZM21.5 21H11.75V15C11.75 14.8011 11.671 14.6103 11.5303 14.4697C11.3897 14.329 11.1989 14.25 11 14.25H6.5C6.30109 14.25 6.11032 14.329 5.96967 14.4697C5.82902 14.6103 5.75 14.8011 5.75 15V21H3.5V12H12.5V3H21.5V21Z" fill="#0E3F6A"/>
<path d="M14 6H15.5V7.5H14V6ZM18.5 6H20V7.5H18.5V6ZM14 10.5H15.5V12H14V10.5ZM18.5 10.5H20V12H18.5V10.5ZM14 15H15.5V16.5H14V15ZM18.5 15H20V16.5H18.5V15Z" fill="#0E3F6A"/>
</svg>
