<svg width="24" height="25" viewBox="0 0 24 25" fill="none" xmlns="http://www.w3.org/2000/svg">
<g clip-path="url(#clip0_29_791)">
<path d="M19 4.98645H18V2.98645H16V4.98645H8V2.98645H6V4.98645H5C3.89 4.98645 3.01 5.88645 3.01 6.98645L3 20.9865C3 22.0865 3.89 22.9865 5 22.9865H19C20.1 22.9865 21 22.0865 21 20.9865V6.98645C21 5.88645 20.1 4.98645 19 4.98645ZM19 20.9865H5V10.9865H19V20.9865ZM9 14.9865H7V12.9865H9V14.9865ZM13 14.9865H11V12.9865H13V14.9865ZM17 14.9865H15V12.9865H17V14.9865ZM9 18.9865H7V16.9865H9V18.9865ZM13 18.9865H11V16.9865H13V18.9865ZM17 18.9865H15V16.9865H17V18.9865Z" fill="white"/>
</g>
<defs>
<clipPath id="clip0_29_791">
<rect width="24" height="24" fill="white" transform="translate(0 0.98645)"/>
</clipPath>
</defs>
</svg>
