<svg width="19" height="16" viewBox="0 0 19 16" fill="none" xmlns="http://www.w3.org/2000/svg">
<path d="M16.9131 2.08696H14.5027L13.3174 0.309565C13.2539 0.214393 13.1679 0.13635 13.0671 0.0823527C12.9662 0.0283549 12.8536 6.86999e-05 12.7392 0H7.17396C7.05954 6.86999e-05 6.94692 0.0283549 6.84605 0.0823527C6.74518 0.13635 6.65919 0.214393 6.59569 0.309565L5.40961 2.08696H3.00004C2.44655 2.08696 1.91572 2.30683 1.52434 2.69821C1.13296 3.08959 0.913086 3.62042 0.913086 4.17391V13.913C0.913086 14.4665 1.13296 14.9974 1.52434 15.3887C1.91572 15.7801 2.44655 16 3.00004 16H16.9131C17.4666 16 17.9974 15.7801 18.3888 15.3887C18.7802 14.9974 19 14.4665 19 13.913V4.17391C19 3.62042 18.7802 3.08959 18.3888 2.69821C17.9974 2.30683 17.4666 2.08696 16.9131 2.08696ZM17.6087 13.913C17.6087 14.0975 17.5354 14.2745 17.405 14.4049C17.2745 14.5354 17.0976 14.6087 16.9131 14.6087H3.00004C2.81554 14.6087 2.6386 14.5354 2.50814 14.4049C2.37768 14.2745 2.30439 14.0975 2.30439 13.913V4.17391C2.30439 3.98941 2.37768 3.81247 2.50814 3.68201C2.6386 3.55155 2.81554 3.47826 3.00004 3.47826H5.78265C5.89721 3.47834 6.01001 3.45012 6.11104 3.39611C6.21207 3.34211 6.2982 3.26399 6.36178 3.1687L7.54613 1.3913H12.3661L13.5513 3.1687C13.6149 3.26399 13.7011 3.34211 13.8021 3.39611C13.9031 3.45012 14.0159 3.47834 14.1305 3.47826H16.9131C17.0976 3.47826 17.2745 3.55155 17.405 3.68201C17.5354 3.81247 17.6087 3.98941 17.6087 4.17391V13.913ZM9.95656 4.86957C9.19984 4.86957 8.4601 5.09396 7.8309 5.51438C7.20171 5.93479 6.71131 6.53235 6.42172 7.23147C6.13213 7.9306 6.05636 8.6999 6.20399 9.44208C6.35163 10.1843 6.71602 10.866 7.25111 11.4011C7.7862 11.9362 8.46794 12.3006 9.21013 12.4482C9.95232 12.5959 10.7216 12.5201 11.4207 12.2305C12.1199 11.9409 12.7174 11.4505 13.1378 10.8213C13.5583 10.1921 13.7827 9.45238 13.7827 8.69565C13.7815 7.68126 13.378 6.70875 12.6607 5.99147C11.9435 5.27419 10.971 4.87072 9.95656 4.86957ZM9.95656 11.1304C9.47501 11.1304 9.00427 10.9876 8.60387 10.7201C8.20347 10.4526 7.8914 10.0723 7.70712 9.6274C7.52284 9.1825 7.47462 8.69295 7.56856 8.22065C7.66251 7.74835 7.8944 7.31451 8.23491 6.974C8.57542 6.63349 9.00926 6.4016 9.48156 6.30765C9.95386 6.21371 10.4434 6.26192 10.8883 6.44621C11.3332 6.63049 11.7135 6.94256 11.981 7.34296C12.2485 7.74336 12.3913 8.2141 12.3913 8.69565C12.3913 9.3414 12.1348 9.96069 11.6782 10.4173C11.2216 10.8739 10.6023 11.1304 9.95656 11.1304Z" fill="#0E3F6A"/>
</svg>
