<svg width="24" height="25" viewBox="0 0 24 25" fill="none" xmlns="http://www.w3.org/2000/svg">
<path d="M4.0007 19.9865L3.0707 19.6164C3.00425 19.7836 2.98414 19.9657 3.01249 20.1433C3.04084 20.321 3.1166 20.4878 3.23178 20.626C3.34696 20.7642 3.4973 20.8688 3.66695 20.9287C3.83659 20.9886 4.01926 21.0017 4.1957 20.9664L4.0007 19.9865ZM8.70671 19.0504L9.18071 18.1695L8.8637 17.9995L8.5117 18.0695L8.70671 19.0504ZM5.6247 15.9035L6.5547 16.2734L6.7177 15.8595L6.5217 15.4605L5.6247 15.9035ZM19.0007 12.9865C19.0007 16.2325 16.1477 18.9865 12.4707 18.9865V20.9865C17.1117 20.9865 21.0007 17.4725 21.0007 12.9865H19.0007ZM5.9417 12.9865C5.9417 9.74045 8.7957 6.98645 12.4717 6.98645V4.98645C7.8307 4.98645 3.9407 8.50045 3.9407 12.9865H5.9417ZM12.4717 6.98645C16.1477 6.98645 19.0007 9.74045 19.0007 12.9865H21.0007C21.0007 8.50045 17.1127 4.98645 12.4717 4.98645V6.98645ZM12.4707 18.9865C11.2657 18.9865 10.1437 18.6865 9.18071 18.1695L8.23271 19.9305C9.53655 20.6278 10.9921 20.9907 12.4707 20.9865V18.9865ZM4.1957 20.9664L8.9017 20.0305L8.5117 18.0695L3.8057 19.0054L4.1957 20.9675V20.9664ZM6.5217 15.4605C6.13978 14.6916 5.94193 13.8449 5.9417 12.9865H3.9407C3.9407 14.1865 4.2227 15.3244 4.7267 16.3464L6.5217 15.4605ZM4.6957 15.5335L3.0707 19.6175L4.9287 20.3554L6.5527 16.2725L4.6947 15.5335H4.6957Z" fill="white"/>
<path d="M9 13.9865C9.55228 13.9865 10 13.5387 10 12.9865C10 12.4342 9.55228 11.9865 9 11.9865C8.44772 11.9865 8 12.4342 8 12.9865C8 13.5387 8.44772 13.9865 9 13.9865Z" fill="white"/>
<path d="M12.5 13.9865C13.0523 13.9865 13.5 13.5387 13.5 12.9865C13.5 12.4342 13.0523 11.9865 12.5 11.9865C11.9477 11.9865 11.5 12.4342 11.5 12.9865C11.5 13.5387 11.9477 13.9865 12.5 13.9865Z" fill="white"/>
<path d="M16 13.9865C16.5523 13.9865 17 13.5387 17 12.9865C17 12.4342 16.5523 11.9865 16 11.9865C15.4477 11.9865 15 12.4342 15 12.9865C15 13.5387 15.4477 13.9865 16 13.9865Z" fill="white"/>
</svg>
