<svg width="40" height="40" viewBox="0 0 40 40" fill="none" xmlns="http://www.w3.org/2000/svg">
<circle opacity="0.15" cx="20" cy="20" r="20" fill="#0E3F6A"/>
<path d="M24 12.25C24 13.49 22.99 14.5 21.75 14.5H18.25C17.63 14.5 17.07 14.25 16.66 13.84C16.25 13.43 16 12.87 16 12.25C16 11.01 17.01 10 18.25 10H21.75C22.37 10 22.93 10.25 23.34 10.66C23.75 11.07 24 11.63 24 12.25Z" fill="#0E3F6A"/>
<path d="M26.83 13.0301C26.6 12.8401 26.34 12.6901 26.06 12.5801C25.77 12.4701 25.48 12.7001 25.42 13.0001C25.08 14.7101 23.57 16.0001 21.75 16.0001H18.25C17.25 16.0001 16.31 15.6101 15.6 14.9001C15.08 14.3801 14.72 13.7201 14.58 13.0101C14.52 12.7101 14.22 12.4701 13.93 12.5901C12.77 13.0601 12 14.1201 12 16.2501V26.0001C12 29.0001 13.79 30.0001 16 30.0001H24C26.21 30.0001 28 29.0001 28 26.0001V16.2501C28 14.6201 27.55 13.6201 26.83 13.0301ZM16 20.2501H20C20.41 20.2501 20.75 20.5901 20.75 21.0001C20.75 21.4101 20.41 21.7501 20 21.7501H16C15.59 21.7501 15.25 21.4101 15.25 21.0001C15.25 20.5901 15.59 20.2501 16 20.2501ZM24 25.7501H16C15.59 25.7501 15.25 25.4101 15.25 25.0001C15.25 24.5901 15.59 24.2501 16 24.2501H24C24.41 24.2501 24.75 24.5901 24.75 25.0001C24.75 25.4101 24.41 25.7501 24 25.7501Z" fill="#0E3F6A"/>
</svg>
