<svg width="24" height="25" viewBox="0 0 24 25" fill="none" xmlns="http://www.w3.org/2000/svg">
<g clip-path="url(#clip0_85_1201)">
<path d="M14 20.8664V22.9864H16.12L21.29 17.8164L19.17 15.6964L14 20.8664Z" fill="white"/>
<path d="M20 8.98645L14 2.98645H6C4.9 2.98645 4.01 3.88645 4.01 4.98645L4 20.9865C4 22.0865 4.89 22.9865 5.99 22.9865H12V20.0364L20 12.0365V8.98645ZM13 9.98645V4.48645L18.5 9.98645H13Z" fill="white"/>
<path d="M22.7109 14.9865L22.0009 14.2765C21.6109 13.8865 20.9809 13.8865 20.5909 14.2765L19.8809 14.9865L22.0009 17.1065L22.7109 16.3965C23.1009 16.0065 23.1009 15.3765 22.7109 14.9865Z" fill="white"/>
</g>
<defs>
<clipPath id="clip0_85_1201">
<rect width="24" height="24" fill="white" transform="translate(0 0.98645)"/>
</clipPath>
</defs>
</svg>
