<svg width="33" height="32" viewBox="0 0 33 32" fill="none" xmlns="http://www.w3.org/2000/svg">
<path d="M30.8941 4.5629L27.5354 1.21628C29.0369 0.701248 30.5673 0.295822 32.1158 0C31.8178 1.54296 31.411 3.06783 30.8951 4.56396L30.8941 4.5629Z" fill="#3E6588"/>
<path d="M30.777 4.89695L27.2005 1.33325C22.6425 2.94963 18.3643 5.57479 14.7162 9.20979C14.272 9.65246 13.8437 10.1036 13.4294 10.5644C11.3138 12.9182 9.58799 15.4976 8.25627 18.2217C8.16229 18.4133 8.07152 18.6048 7.98075 18.7974C7.92094 18.9262 7.8622 19.056 7.80347 19.1847L12.8612 24.2244C12.9915 24.1658 13.1207 24.1073 13.25 24.0477C13.4443 23.9583 13.6376 23.8668 13.8288 23.7721C16.5616 22.4452 19.1514 20.7277 21.5126 18.6186C21.975 18.2068 22.4278 17.7791 22.8721 17.3364C26.5202 13.7014 29.1548 9.43857 30.777 4.89695ZM21.5126 15.5029C20.1424 16.018 18.5384 15.7264 17.4352 14.6272C16.3331 13.529 16.0394 11.9286 16.5563 10.5644C16.7432 10.0707 17.0369 9.60777 17.4352 9.20979C18.9367 7.71365 21.3706 7.71365 22.8721 9.20979C24.3736 10.7059 24.3736 13.131 22.8721 14.6272C22.4738 15.0241 22.0081 15.3167 21.5126 15.5029Z" fill="#0E3F6A"/>
<path d="M22.1917 13.9498C21.9856 14.1552 21.757 14.3233 21.5125 14.4521C20.421 15.0342 19.0338 14.866 18.1143 13.9498C17.1948 13.0336 17.026 11.6514 17.6102 10.5639C17.7405 10.3202 17.9082 10.0924 18.1143 9.88708C19.2399 8.76551 21.0661 8.76551 22.1917 9.88708C23.3173 11.0086 23.3173 12.8283 22.1917 13.9498Z" fill="#3E6588"/>
<path d="M7.12423 18.5067C4.79825 17.8204 2.29607 17.881 0 18.6876C0.95901 18.0704 1.89559 17.4022 2.80334 16.6839C3.86808 15.8422 4.89544 14.9313 5.88008 13.9502C6.96297 12.8712 7.96149 11.74 8.87458 10.5642H12.1564C10.2447 12.8063 8.67594 15.241 7.45209 17.798C7.33995 18.0332 7.22995 18.2694 7.12316 18.5067H7.12423Z" fill="#3E6588"/>
<path d="M13.3597 32.0001C14.1692 29.7122 14.2301 27.2201 13.5413 24.9014C13.7794 24.795 14.0165 24.6854 14.2525 24.5736C16.8188 23.3542 19.2622 21.791 21.5124 19.8862V23.1562C20.3323 24.0671 19.1971 25.061 18.1142 26.14C17.1295 27.1211 16.2154 28.1448 15.3706 29.2057C14.6498 30.1113 13.9791 31.0434 13.3597 31.999V32.0001Z" fill="#3E6588"/>
<path d="M11.9163 24.629L9.67899 25.8602L7.8966 26.8413L7.89447 26.8424L8.27252 25.8858L8.6762 24.8631L8.67727 24.8621L8.6762 24.861V24.8631L6.27867 26.3816L5.39869 26.9392L4.52084 27.4958L5.07938 26.62L5.63791 25.7453L5.63898 25.7432L7.164 23.3553L6.13664 23.7575L5.17656 24.1332V24.131L6.1612 22.3561L7.39787 20.1257L11.9163 24.629Z" fill="#F17721"/>
</svg>
