<svg width="33" height="33" viewBox="0 0 33 33" fill="none" xmlns="http://www.w3.org/2000/svg">
<path d="M31.6949 5.07952L28.3484 1.73288C29.8445 1.21785 31.3693 0.812425 32.9123 0.516602C32.6154 2.05957 32.21 3.58444 31.696 5.08059L31.6949 5.07952Z" fill="white"/>
<path d="M31.5784 5.41381L28.0148 1.8501C23.4732 3.46649 19.2105 6.09165 15.5756 9.72667C15.1329 10.1693 14.7062 10.6205 14.2934 11.0813C12.1854 13.4351 10.4658 16.0145 9.13892 18.7386C9.04528 18.9302 8.95483 19.1217 8.86438 19.3143C8.80479 19.4431 8.74627 19.5729 8.68774 19.7017L13.7273 24.7413C13.8571 24.6828 13.9858 24.6243 14.1146 24.5647C14.3083 24.4753 14.5009 24.3838 14.6913 24.2891C17.4143 22.9621 19.9947 21.2446 22.3474 19.1356C22.8082 18.7237 23.2594 18.296 23.702 17.8533C27.3369 14.2183 29.962 9.95545 31.5784 5.41381ZM22.3474 16.0198C20.9822 16.5349 19.3839 16.2433 18.2847 15.1441C17.1866 14.0459 16.894 12.4455 17.409 11.0813C17.5952 10.5875 17.8878 10.1246 18.2847 9.72667C19.7808 8.23052 22.2059 8.23052 23.702 9.72667C25.1981 11.2228 25.1981 13.6479 23.702 15.1441C23.3051 15.541 22.8412 15.8336 22.3474 16.0198Z" fill="white"/>
<path d="M23.0239 14.4665C22.8185 14.6718 22.5908 14.84 22.3471 14.9687C21.2596 15.5508 19.8774 15.3827 18.9612 14.4665C18.045 13.5503 17.8769 12.168 18.4589 11.0805C18.5888 10.8368 18.7558 10.6091 18.9612 10.4037C20.0827 9.28211 21.9023 9.28211 23.0239 10.4037C24.1454 11.5253 24.1454 13.3449 23.0239 14.4665Z" fill="white"/>
<path d="M8.01088 19.0231C5.6933 18.3368 3.20014 18.3974 0.912354 19.204C1.8679 18.5868 2.80111 17.9186 3.70558 17.2003C4.76648 16.3586 5.79013 15.4477 6.77122 14.4666C7.8502 13.3876 8.84512 12.2564 9.75492 11.0806H13.0249C11.1201 13.3227 9.557 15.7573 8.33755 18.3144C8.22582 18.5496 8.11622 18.7858 8.00981 19.0231H8.01088Z" fill="white"/>
<path d="M14.2239 32.5167C15.0305 30.2289 15.0911 27.7367 14.4048 25.418C14.6421 25.3116 14.8783 25.202 15.1135 25.0903C17.6705 23.8708 20.1051 22.3076 22.3471 20.4028V23.6729C21.1713 24.5837 20.0402 25.5776 18.9612 26.6566C17.9801 27.6377 17.0692 28.6614 16.2276 29.7223C15.5093 30.6279 14.841 31.5601 14.2239 32.5156V32.5167Z" fill="white"/>
<path d="M12.7853 25.1454L10.556 26.3766L8.78008 27.3577L8.77795 27.3588L9.15464 26.4021L9.55687 25.3795L9.55793 25.3785L9.55687 25.3774V25.3795L7.16799 26.898L6.29118 27.4556L5.4165 28.0121L5.97302 27.1364L6.52954 26.2617L6.5306 26.2595L8.05012 23.8717L7.02647 24.2739L6.06985 24.6495V24.6474L7.05094 22.8725L8.28315 20.6421L12.7853 25.1454Z" fill="white"/>
</svg>
