<svg width="40" height="41" viewBox="0 0 40 41" fill="none" xmlns="http://www.w3.org/2000/svg">
<rect y="0.5" width="40" height="40" rx="20" fill="white"/>
<g clip-path="url(#clip0_46_405)">
<path d="M16.361 9.28943C13.9631 10.1213 11.8951 11.7002 10.4608 13.7943C9.02649 15.8884 8.30153 18.3872 8.39237 20.9237C8.48322 23.4603 9.38508 25.9008 10.9655 27.8869C12.5459 29.873 14.7216 31.3 17.1729 31.9582C19.1603 32.471 21.2424 32.4935 23.2404 32.0238C25.0504 31.6173 26.7238 30.7476 28.0967 29.5001C29.5256 28.162 30.5627 26.4597 31.0967 24.5763C31.6768 22.5282 31.7801 20.3743 31.3985 18.2801H20.2385V22.9094H26.7017C26.5725 23.6478 26.2957 24.3525 25.8878 24.9814C25.48 25.6102 24.9494 26.1504 24.3279 26.5694C23.5388 27.0917 22.6491 27.443 21.716 27.6007C20.7803 27.7747 19.8205 27.7747 18.8848 27.6007C17.9363 27.4048 17.0391 27.0134 16.2504 26.4513C14.9832 25.5543 14.0317 24.2799 13.5317 22.8101C13.0233 21.3126 13.0233 19.6893 13.5317 18.1919C13.8876 17.1423 14.476 16.1867 15.2529 15.3963C16.142 14.4752 17.2677 13.8168 18.5063 13.4933C19.745 13.1698 21.0488 13.1938 22.2748 13.5626C23.2325 13.8564 24.1083 14.3701 24.8323 15.0626C25.561 14.3376 26.2885 13.6107 27.0148 12.8819C27.3898 12.4901 27.7985 12.1169 28.1679 11.7157C27.0627 10.6873 25.7654 9.887 24.3504 9.36068C21.7736 8.42504 18.9541 8.39989 16.361 9.28943Z" fill="white"/>
<path d="M16.3607 9.28937C18.9536 8.39922 21.7731 8.42371 24.3501 9.35874C25.7653 9.88864 27.062 10.6928 28.1657 11.725C27.7907 12.1262 27.3951 12.5012 27.0126 12.8912C26.2851 13.6175 25.5582 14.3412 24.832 15.0625C24.108 14.37 23.2322 13.8563 22.2745 13.5625C21.0489 13.1924 19.7451 13.1671 18.5061 13.4893C17.2671 13.8114 16.1408 14.4686 15.2507 15.3887C14.4738 16.1791 13.8854 17.1348 13.5295 18.1844L9.64258 15.175C11.0338 12.416 13.4427 10.3057 16.3607 9.28937Z" fill="#E33629"/>
<path d="M8.6114 18.1563C8.82016 17.1209 9.16701 16.1182 9.64265 15.175L13.5295 18.1919C13.0212 19.6893 13.0212 21.3126 13.5295 22.81C12.2345 23.81 10.9389 24.815 9.64265 25.825C8.45231 23.4556 8.08927 20.756 8.6114 18.1563Z" fill="#F8BD00"/>
<path d="M20.2381 18.2781H31.3981C31.7797 20.3723 31.6764 22.5262 31.0963 24.5743C30.5623 26.4577 29.5252 28.16 28.0963 29.4981C26.8419 28.5193 25.5819 27.5481 24.3275 26.5693C24.9494 26.1498 25.4802 25.6091 25.8881 24.9796C26.296 24.35 26.5726 23.6446 26.7013 22.9056H20.2381C20.2363 21.3643 20.2381 19.8212 20.2381 18.2781Z" fill="#587DBD"/>
<path d="M9.64062 25.8251C10.9369 24.8251 12.2325 23.8201 13.5275 22.8101C14.0285 24.2804 14.9814 25.5549 16.25 26.4513C17.0412 27.0107 17.9403 27.399 18.89 27.5913C19.8257 27.7653 20.7855 27.7653 21.7213 27.5913C22.6543 27.4336 23.544 27.0823 24.3331 26.5601C25.5875 27.5388 26.8475 28.5101 28.1019 29.4888C26.7292 30.737 25.0558 31.6073 23.2456 32.0144C21.2476 32.4841 19.1655 32.4616 17.1781 31.9488C15.6063 31.5291 14.1381 30.7893 12.8656 29.7757C11.5189 28.7062 10.4188 27.3587 9.64062 25.8251Z" fill="#008000"/>
</g>
<defs>
<clipPath id="clip0_46_405">
<rect width="24" height="24" fill="white" transform="translate(8 8.5)"/>
</clipPath>
</defs>
</svg>
