<svg width="24" height="25" viewBox="0 0 24 25" fill="none" xmlns="http://www.w3.org/2000/svg">
<path d="M11.95 18.9865C12.3 18.9865 12.596 18.8654 12.838 18.6234C13.08 18.3814 13.2007 18.0858 13.2 17.7365C13.2 17.3864 13.0793 17.0905 12.838 16.8485C12.5967 16.6065 12.3007 16.4858 11.95 16.4865C11.6 16.4865 11.3043 16.6075 11.063 16.8495C10.8217 17.0914 10.7007 17.3871 10.7 17.7365C10.7 18.0865 10.821 18.3825 11.063 18.6245C11.305 18.8665 11.6007 18.9871 11.95 18.9865ZM11.05 15.1364H12.9C12.9 14.5864 12.9627 14.1531 13.088 13.8365C13.2133 13.5198 13.5673 13.0865 14.15 12.5365C14.5833 12.1031 14.925 11.6905 15.175 11.2985C15.425 10.9065 15.55 10.4358 15.55 9.88645C15.55 8.95312 15.2083 8.23645 14.525 7.73645C13.8417 7.23645 13.0333 6.98645 12.1 6.98645C11.15 6.98645 10.3793 7.23645 9.788 7.73645C9.19667 8.23645 8.784 8.83645 8.55 9.53645L10.2 10.1865C10.2833 9.88645 10.471 9.56145 10.763 9.21145C11.055 8.86145 11.5007 8.68645 12.1 8.68645C12.6333 8.68645 13.0333 8.83245 13.3 9.12445C13.5667 9.41645 13.7 9.73712 13.7 10.0865C13.7 10.4198 13.6 10.7325 13.4 11.0245C13.2 11.3165 12.95 11.5871 12.65 11.8365C11.9167 12.4865 11.4667 12.9781 11.3 13.3115C11.1333 13.6448 11.05 14.2531 11.05 15.1364ZM12 22.9865C10.6167 22.9865 9.31667 22.7241 8.1 22.1994C6.88333 21.6748 5.825 20.9621 4.925 20.0615C4.025 19.1615 3.31267 18.1031 2.788 16.8864C2.26333 15.6698 2.00067 14.3698 2 12.9865C2 11.6031 2.26267 10.3031 2.788 9.08645C3.31333 7.86978 4.02567 6.81145 4.925 5.91145C5.825 5.01145 6.88333 4.29912 8.1 3.77445C9.31667 3.24978 10.6167 2.98712 12 2.98645C13.3833 2.98645 14.6833 3.24912 15.9 3.77445C17.1167 4.29978 18.175 5.01212 19.075 5.91145C19.975 6.81145 20.6877 7.86978 21.213 9.08645C21.7383 10.3031 22.0007 11.6031 22 12.9865C22 14.3698 21.7373 15.6698 21.212 16.8864C20.6867 18.1031 19.9743 19.1615 19.075 20.0615C18.175 20.9615 17.1167 21.6741 15.9 22.1994C14.6833 22.7248 13.3833 22.9871 12 22.9865ZM12 20.9865C14.2333 20.9865 16.125 20.2114 17.675 18.6614C19.225 17.1114 20 15.2198 20 12.9865C20 10.7531 19.225 8.86145 17.675 7.31145C16.125 5.76145 14.2333 4.98645 12 4.98645C9.76667 4.98645 7.875 5.76145 6.325 7.31145C4.775 8.86145 4 10.7531 4 12.9865C4 15.2198 4.775 17.1114 6.325 18.6614C7.875 20.2114 9.76667 20.9865 12 20.9865Z" fill="white"/>
</svg>
