<svg width="25" height="24" viewBox="0 0 25 24" fill="none" xmlns="http://www.w3.org/2000/svg">
<path d="M12.5 13.5C11.7583 13.5 11.0333 13.2801 10.4166 12.868C9.79993 12.456 9.31928 11.8703 9.03545 11.1851C8.75162 10.4998 8.67736 9.74584 8.82206 9.01841C8.96675 8.29098 9.3239 7.6228 9.84835 7.09835C10.3728 6.5739 11.041 6.21675 11.7684 6.07206C12.4958 5.92736 13.2498 6.00162 13.9351 6.28545C14.6203 6.56928 15.206 7.04993 15.618 7.66661C16.0301 8.2833 16.25 9.00832 16.25 9.75C16.2488 10.7442 15.8533 11.6973 15.1503 12.4003C14.4473 13.1033 13.4942 13.4988 12.5 13.5ZM12.5 7.5C12.055 7.5 11.62 7.63196 11.25 7.8792C10.88 8.12643 10.5916 8.47783 10.4213 8.88896C10.251 9.3001 10.2064 9.7525 10.2932 10.189C10.3801 10.6254 10.5943 11.0263 10.909 11.341C11.2237 11.6557 11.6246 11.87 12.061 11.9568C12.4975 12.0436 12.9499 11.999 13.361 11.8287C13.7722 11.6584 14.1236 11.37 14.3708 11C14.618 10.63 14.75 10.195 14.75 9.75C14.7494 9.15345 14.5122 8.5815 14.0903 8.15967C13.6685 7.73784 13.0966 7.5006 12.5 7.5Z" fill="#0E3F6A"/>
<path d="M12.5 22.5L6.17301 15.0382C6.08509 14.9262 5.99809 14.8135 5.91201 14.7C4.83124 13.2763 4.24739 11.5374 4.25001 9.75C4.25001 7.56196 5.1192 5.46354 6.66638 3.91637C8.21355 2.36919 10.312 1.5 12.5 1.5C14.688 1.5 16.7865 2.36919 18.3336 3.91637C19.8808 5.46354 20.75 7.56196 20.75 9.75C20.7526 11.5366 20.169 13.2747 19.0888 14.6978L19.088 14.7C19.088 14.7 18.863 14.9955 18.8293 15.0353L12.5 22.5ZM7.10976 13.7963C7.10976 13.7963 7.28451 14.0272 7.32426 14.0767L12.5 20.181L17.6825 14.0685C17.7155 14.0272 17.891 13.7948 17.8918 13.794C18.7746 12.6308 19.2517 11.2103 19.25 9.75C19.25 7.95979 18.5388 6.2429 17.273 4.97703C16.0071 3.71116 14.2902 3 12.5 3C10.7098 3 8.99291 3.71116 7.72704 4.97703C6.46117 6.2429 5.75001 7.95979 5.75001 9.75C5.74844 11.2112 6.22609 12.6326 7.10976 13.7963Z" fill="#0E3F6A"/>
</svg>
