<svg width="123" height="34" viewBox="0 0 123 34" fill="none" xmlns="http://www.w3.org/2000/svg">
<path d="M33.421 4.84808L29.8524 1.29229C31.4478 0.745076 33.0738 0.314311 34.7191 0C34.4025 1.63939 33.9702 3.25957 33.4221 4.84921L33.421 4.84808Z" fill="white"/>
<path d="M33.2967 5.20294L29.4966 1.4165C24.6538 3.13391 20.1082 5.92314 16.2322 9.78532C15.7601 10.2557 15.3051 10.735 14.8649 11.2246C12.617 13.7255 10.7834 16.4661 9.36844 19.3605C9.26858 19.564 9.17214 19.7675 9.07569 19.9722C9.01215 20.109 8.94974 20.2469 8.88733 20.3837L14.2612 25.7383C14.3996 25.6761 14.5369 25.614 14.6742 25.5506C14.8807 25.4557 15.0861 25.3584 15.2892 25.2578C18.1929 23.8479 20.9445 22.0231 23.4533 19.7822C23.9446 19.3447 24.4257 18.8902 24.8978 18.4198C28.7738 14.5577 31.5731 10.0284 33.2967 5.20294ZM23.4533 16.4718C21.9975 17.019 20.2932 16.7092 19.1211 15.5413C17.9501 14.3745 17.638 12.674 18.1872 11.2246C18.3858 10.7 18.6978 10.2082 19.1211 9.78532C20.7164 8.19568 23.3024 8.19568 24.8978 9.78532C26.4931 11.375 26.4931 13.9516 24.8978 15.5413C24.4745 15.963 23.9798 16.2739 23.4533 16.4718Z" fill="white"/>
<path d="M24.1746 14.8217C23.9556 15.0399 23.7127 15.2185 23.4529 15.3553C22.2932 15.9737 20.8193 15.7951 19.8423 14.8217C18.8654 13.8482 18.6861 12.3795 19.3067 11.224C19.4452 10.9651 19.6233 10.7232 19.8423 10.505C21.0383 9.31329 22.9786 9.31329 24.1746 10.505C25.3705 11.6966 25.3705 13.63 24.1746 14.8217Z" fill="white"/>
<path d="M8.16544 19.6636C5.69409 18.9344 3.03552 18.9988 0.595947 19.8559C1.6149 19.2001 2.61002 18.4901 3.5745 17.7269C4.70578 16.8326 5.79735 15.8648 6.84353 14.8224C7.9941 13.6759 9.05503 12.4741 10.0252 11.2247H13.5121C11.481 13.6069 9.81414 16.1938 8.51379 18.9107C8.39465 19.1605 8.27777 19.4115 8.1643 19.6636H8.16544Z" fill="white"/>
<path d="M14.7907 34C15.6508 31.5691 15.7155 28.9212 14.9836 26.4576C15.2366 26.3446 15.4885 26.2281 15.7393 26.1094C18.466 24.8137 21.0621 23.1528 23.4529 21.129V24.6034C22.1991 25.5712 20.9929 26.6272 19.8423 27.7737C18.7962 28.8161 17.8249 29.9037 16.9273 31.031C16.1614 31.9931 15.4488 32.9835 14.7907 33.9988V34Z" fill="white"/>
<path d="M13.2568 26.1682L10.8796 27.4763L8.98579 28.5187L8.98352 28.5199L9.3852 27.5034L9.81411 26.4169L9.81525 26.4158L9.81411 26.4147V26.4169L7.26674 28.0303L6.33176 28.6228L5.39905 29.2141L5.99249 28.2836L6.58593 27.3542L6.58706 27.3519L8.2074 24.8148L7.11583 25.2422L6.09575 25.6413V25.6391L7.14193 23.7532L8.45589 21.3834L13.2568 26.1682Z" fill="white"/>
<path d="M38.5798 10.4844C38.0538 10.4844 37.6047 10.3886 37.2326 10.1972C36.8605 10.0057 36.5302 9.72808 36.2415 9.36431L36.8573 8.75164C37.069 9.04521 37.3128 9.26699 37.5887 9.41696C37.8644 9.56694 38.2044 9.64192 38.6086 9.64192C39.0128 9.64192 39.3255 9.55577 39.5661 9.38346C39.8066 9.21115 39.9269 8.97501 39.9269 8.67506C39.9269 8.42616 39.8691 8.22514 39.7537 8.07197C39.6382 7.9188 39.4826 7.79276 39.287 7.69384C39.0913 7.59492 38.878 7.50557 38.6471 7.4258C38.4162 7.34603 38.1852 7.25987 37.9543 7.16733C37.7233 7.0748 37.5116 6.95991 37.3192 6.82271C37.1267 6.6855 36.9712 6.5052 36.8525 6.28183C36.7338 6.05847 36.6745 5.77767 36.6745 5.43943C36.6745 5.06289 36.7659 4.74219 36.9487 4.47735C37.1316 4.2125 37.3817 4.00827 37.6993 3.86468C38.0168 3.72109 38.3745 3.64929 38.7722 3.64929C39.2084 3.64929 39.5997 3.73385 39.9462 3.90297C40.2925 4.0721 40.5748 4.29387 40.7929 4.56829L40.177 5.18095C39.9782 4.9512 39.7649 4.77889 39.5372 4.66402C39.3095 4.54915 39.0481 4.49171 38.7529 4.49171C38.3937 4.49171 38.1082 4.56988 37.8965 4.72624C37.6849 4.8826 37.579 5.10118 37.579 5.38199C37.579 5.60536 37.6383 5.78564 37.7571 5.92285C37.8757 6.06007 38.0313 6.17654 38.2237 6.27227C38.4162 6.368 38.6294 6.45575 38.8636 6.53552C39.0977 6.61529 39.3303 6.70304 39.5613 6.79877C39.7921 6.89451 40.0039 7.01576 40.1963 7.16255C40.3888 7.30933 40.5443 7.4992 40.663 7.73213C40.7817 7.96508 40.841 8.25704 40.841 8.60805C40.841 9.19519 40.6373 9.6547 40.2299 9.98654C39.8227 10.3184 39.2726 10.4844 38.5798 10.4844Z" fill="white"/>
<path d="M41.4863 6.62687V5.8419H44.6039V6.62687H41.4863ZM42.6121 10.389V3.93689H43.4781V10.389H42.6121Z" fill="white"/>
<path d="M47.2498 10.4848C46.8329 10.4848 46.4544 10.3811 46.1144 10.1737C45.7744 9.96626 45.5066 9.68388 45.311 9.32648C45.1153 8.96909 45.0175 8.56703 45.0175 8.12029C45.0175 7.67356 45.1153 7.2715 45.311 6.91411C45.5066 6.55672 45.7728 6.27272 46.1096 6.06212C46.4464 5.85152 46.8265 5.74622 47.2498 5.74622C47.5963 5.74622 47.9058 5.81801 48.1784 5.9616C48.4511 6.10519 48.6708 6.30304 48.8375 6.55512C49.0044 6.80721 49.0974 7.09919 49.1166 7.43104V8.79997C49.0974 9.12544 49.0059 9.41583 48.8424 9.6711C48.6788 9.9264 48.4607 10.1258 48.188 10.2694C47.9154 10.413 47.6027 10.4848 47.2498 10.4848ZM47.3942 9.6711C47.8241 9.6711 48.1704 9.52592 48.4335 9.23553C48.6964 8.94516 48.828 8.57341 48.828 8.12029C48.828 7.80758 48.7686 7.53475 48.65 7.30181C48.5313 7.06887 48.3629 6.88699 48.1448 6.75616C47.9266 6.62532 47.6733 6.55992 47.3846 6.55992C47.0959 6.55992 46.8409 6.62692 46.6196 6.76094C46.3983 6.89496 46.2251 7.07844 46.1 7.31139C45.9749 7.54432 45.9124 7.81077 45.9124 8.11073C45.9124 8.41067 45.9749 8.68669 46.1 8.91963C46.2251 9.15257 46.3999 9.33605 46.6244 9.47007C46.8489 9.60409 47.1055 9.6711 47.3942 9.6711ZM48.7703 10.3891V9.16374L48.9338 8.05328L48.7703 6.95241V5.84195H49.6459V10.3891H48.7703Z" fill="white"/>
<path d="M50.9061 10.3891V5.84195H51.7721V10.3891H50.9061ZM51.7721 7.79481L51.445 7.65122C51.445 7.07047 51.5796 6.60778 51.8491 6.26316C52.1185 5.91853 52.5066 5.74622 53.0134 5.74622C53.2444 5.74622 53.4528 5.7861 53.6389 5.86588C53.8249 5.94565 53.9982 6.07808 54.1585 6.26316L53.5908 6.8471C53.4945 6.74499 53.3887 6.6716 53.2732 6.62692C53.1578 6.58225 53.023 6.55992 52.8691 6.55992C52.5483 6.55992 52.2853 6.66202 52.08 6.86624C51.8748 7.07047 51.7721 7.37999 51.7721 7.79481Z" fill="white"/>
<path d="M54.3317 6.62687V5.8419H57.4493V6.62687H54.3317ZM55.4574 10.389V3.93689H56.3235V10.389H55.4574Z" fill="white"/>
<path d="M60.1438 10.4848C59.7654 10.4848 59.4269 10.4002 59.1286 10.2311C58.8303 10.062 58.5977 9.82744 58.431 9.52748C58.2642 9.22753 58.1808 8.87972 58.1808 8.48404V5.84192H59.0468V8.44574C59.0468 8.69464 59.0901 8.91003 59.1768 9.09192C59.2633 9.2738 59.39 9.41261 59.5569 9.50834C59.7236 9.60406 59.9193 9.65196 60.1438 9.65196C60.4838 9.65196 60.75 9.54503 60.9424 9.33124C61.1349 9.11744 61.2311 8.82228 61.2311 8.44574V5.84192H62.0971V8.48404C62.0971 8.87972 62.0138 9.22753 61.847 9.52748C61.6802 9.82744 61.4508 10.062 61.1589 10.2311C60.867 10.4002 60.5287 10.4848 60.1438 10.4848Z" fill="white"/>
<path d="M63.2613 12.2941V5.84195H64.1273V7.03856L63.9637 8.13944L64.1273 9.24989V12.2941H63.2613ZM65.6669 10.4848C65.3205 10.4848 65.0078 10.413 64.7287 10.2694C64.4496 10.1258 64.2268 9.9264 64.0599 9.6711C63.8932 9.41583 63.8001 9.12544 63.7809 8.79997V7.43104C63.8001 7.09919 63.8948 6.80721 64.0647 6.55512C64.2348 6.30304 64.4593 6.10519 64.7383 5.9616C65.0174 5.81801 65.3269 5.74622 65.6669 5.74622C66.0839 5.74622 66.4608 5.85152 66.7975 6.06212C67.1343 6.27272 67.399 6.55672 67.5914 6.91411C67.7838 7.2715 67.8801 7.67356 67.8801 8.12029C67.8801 8.56703 67.7838 8.96909 67.5914 9.32648C67.399 9.68388 67.1343 9.96626 66.7975 10.1737C66.4608 10.3811 66.0839 10.4848 65.6669 10.4848ZM65.5226 9.6711C65.8112 9.6711 66.0646 9.60409 66.2828 9.47007C66.5009 9.33605 66.674 9.15257 66.8023 8.91963C66.9306 8.68669 66.9948 8.41705 66.9948 8.11073C66.9948 7.80439 66.9306 7.54273 66.8023 7.3066C66.674 7.07047 66.5009 6.88699 66.2828 6.75616C66.0646 6.62532 65.8145 6.55992 65.5322 6.55992C65.2499 6.55992 64.9901 6.62532 64.772 6.75616C64.5539 6.88699 64.3839 7.07047 64.2621 7.3066C64.1401 7.54273 64.0792 7.81397 64.0792 8.12029C64.0792 8.42663 64.1386 8.68669 64.2572 8.91963C64.3759 9.15257 64.5459 9.33605 64.7673 9.47007C64.9885 9.60409 65.2404 9.6711 65.5226 9.6711Z" fill="white"/>
<path d="M36.2415 30.0621V13.0624H39.993V30.0621H36.2415ZM39.1459 30.0621V27.1245H43.1637C43.9059 27.1245 44.4868 26.9077 44.9064 26.4743C45.3259 26.0409 45.5356 25.5112 45.5356 24.8851C45.5356 24.4517 45.4389 24.0664 45.2452 23.7293C45.0516 23.3922 44.7813 23.1273 44.4344 22.9348C44.0874 22.7421 43.6639 22.6458 43.1637 22.6458H39.1459V19.7804H42.8491C43.4783 19.7804 43.9866 19.6239 44.3739 19.3109C44.7611 18.9979 44.9548 18.5203 44.9548 17.8781C44.9548 17.236 44.7611 16.7826 44.3739 16.4696C43.9866 16.1565 43.4783 16 42.8491 16H39.1459V13.0624H43.5752C44.6723 13.0624 45.6042 13.263 46.3707 13.6643C47.1371 14.0657 47.7221 14.6035 48.1255 15.2776C48.5288 15.9519 48.7305 16.6983 48.7305 17.517C48.7305 18.5604 48.3917 19.4433 47.714 20.1656C47.0363 20.888 46.0358 21.3856 44.7127 21.6586L44.8095 20.3824C46.2456 20.6553 47.355 21.2091 48.1375 22.0438C48.9201 22.8786 49.3114 23.9059 49.3114 25.1259C49.3114 26.0569 49.0815 26.8957 48.6216 27.6422C48.1617 28.3886 47.5002 28.9785 46.637 29.412C45.7736 29.8453 44.7369 30.0621 43.5267 30.0621H39.1459Z" fill="white"/>
<path d="M57.0811 30.3267C55.8709 30.3267 54.7777 30.0579 53.8015 29.5201C52.8253 28.9823 52.0548 28.248 51.4901 27.3169C50.9253 26.3859 50.6429 25.3424 50.6429 24.1867C50.6429 23.0308 50.9253 21.9954 51.4901 21.0805C52.0548 20.1654 52.8213 19.4391 53.7894 18.9013C54.7575 18.3636 55.8548 18.0947 57.0811 18.0947C58.3074 18.0947 59.4047 18.3595 60.3727 18.8893C61.3409 19.419 62.1074 20.1454 62.6721 21.0685C63.2368 21.9915 63.5192 23.0308 63.5192 24.1867C63.5192 25.3424 63.2368 26.3859 62.6721 27.3169C62.1074 28.248 61.3409 28.9823 60.3727 29.5201C59.4047 30.0579 58.3074 30.3267 57.0811 30.3267ZM57.0811 26.9798C57.6136 26.9798 58.0815 26.8634 58.4849 26.6306C58.8883 26.3979 59.1989 26.0688 59.4167 25.6434C59.6346 25.218 59.7435 24.7324 59.7435 24.1867C59.7435 23.6408 59.6305 23.1633 59.4046 22.7539C59.1787 22.3446 58.8681 22.0236 58.4728 21.7908C58.0774 21.558 57.6136 21.4416 57.0811 21.4416C56.5486 21.4416 56.1049 21.558 55.7015 21.7908C55.2981 22.0236 54.9835 22.3486 54.7575 22.766C54.5317 23.1834 54.4187 23.6649 54.4187 24.2107C54.4187 24.7565 54.5317 25.218 54.7575 25.6434C54.9835 26.0688 55.2981 26.3979 55.7015 26.6306C56.1049 26.8634 56.5647 26.9798 57.0811 26.9798Z" fill="white"/>
<path d="M71.0222 30.3267C69.812 30.3267 68.7188 30.0579 67.7426 29.5201C66.7664 28.9823 65.9959 28.248 65.4312 27.3169C64.8664 26.3859 64.584 25.3424 64.584 24.1867C64.584 23.0308 64.8664 21.9954 65.4312 21.0805C65.9959 20.1654 66.7623 19.4391 67.7305 18.9013C68.6986 18.3636 69.7959 18.0947 71.0222 18.0947C72.2485 18.0947 73.3457 18.3595 74.3138 18.8893C75.282 19.419 76.0484 20.1454 76.6132 21.0685C77.1779 21.9915 77.4603 23.0308 77.4603 24.1867C77.4603 25.3424 77.1779 26.3859 76.6132 27.3169C76.0484 28.248 75.282 28.9823 74.3138 29.5201C73.3457 30.0579 72.2485 30.3267 71.0222 30.3267ZM71.0222 26.9798C71.5547 26.9798 72.0226 26.8634 72.426 26.6306C72.8294 26.3979 73.14 26.0688 73.3578 25.6434C73.5757 25.218 73.6846 24.7324 73.6846 24.1867C73.6846 23.6408 73.5716 23.1633 73.3457 22.7539C73.1198 22.3446 72.8092 22.0236 72.4138 21.7908C72.0185 21.558 71.5547 21.4416 71.0222 21.4416C70.4897 21.4416 70.0459 21.558 69.6426 21.7908C69.2392 22.0236 68.9246 22.3486 68.6986 22.766C68.4728 23.1834 68.3598 23.6649 68.3598 24.2107C68.3598 24.7565 68.4728 25.218 68.6986 25.6434C68.9246 26.0688 69.2392 26.3979 69.6426 26.6306C70.0459 26.8634 70.5058 26.9798 71.0222 26.9798Z" fill="white"/>
<path d="M83.5838 30.3507C82.89 30.3507 82.2082 30.2624 81.5385 30.0858C80.869 29.9092 80.2477 29.6564 79.675 29.3273C79.1021 28.9982 78.6139 28.617 78.2106 28.1835L80.3163 26.0646C80.7036 26.4819 81.1635 26.8071 81.6959 27.0398C82.2284 27.2726 82.8093 27.3889 83.4386 27.3889C83.8743 27.3889 84.209 27.3248 84.443 27.1963C84.677 27.0679 84.7939 26.8913 84.7939 26.6665C84.7939 26.3776 84.6527 26.1569 84.3704 26.0044C84.0881 25.852 83.729 25.7155 83.2934 25.595C82.8577 25.4747 82.3978 25.3422 81.9137 25.1978C81.4297 25.0533 80.9698 24.8527 80.5341 24.5958C80.0985 24.3389 79.7435 23.9818 79.4692 23.5243C79.1949 23.0668 79.0577 22.4849 79.0577 21.7786C79.0577 21.0241 79.2513 20.3699 79.6386 19.8161C80.0258 19.2623 80.5745 18.8249 81.2844 18.5038C81.9944 18.1828 82.8254 18.0222 83.7774 18.0222C84.7778 18.0222 85.7016 18.1948 86.5487 18.5399C87.3958 18.8851 88.0856 19.3947 88.6181 20.069L86.5124 22.1879C86.1412 21.7545 85.7258 21.4495 85.2659 21.2729C84.8061 21.0963 84.3582 21.0081 83.9226 21.0081C83.4869 21.0081 83.1884 21.0683 82.9787 21.1886C82.7689 21.309 82.664 21.4816 82.664 21.7063C82.664 21.9471 82.8012 22.1398 83.0755 22.2843C83.3498 22.4287 83.7048 22.5571 84.1405 22.6695C84.5761 22.7819 85.036 22.9183 85.5201 23.0789C86.0042 23.2394 86.464 23.456 86.8997 23.7289C87.3354 24.0019 87.6903 24.3671 87.9646 24.8245C88.239 25.282 88.376 25.88 88.376 26.6184C88.376 27.7581 87.9445 28.6651 87.0812 29.3394C86.218 30.0135 85.0521 30.3507 83.5838 30.3507Z" fill="white"/>
<path d="M89.3926 21.4901V18.3598H98.4206V21.4901H89.3926ZM92.055 30.0622V13.5199H95.7582V30.0622H92.055Z" fill="white"/>
<path d="M105.607 30.3267C104.332 30.3267 103.198 30.0659 102.206 29.5442C101.214 29.0225 100.436 28.2961 99.8709 27.3651C99.3061 26.434 99.0237 25.3826 99.0237 24.2107C99.0237 23.0389 99.3021 21.9915 99.8588 21.0685C100.415 20.1454 101.17 19.419 102.122 18.8893C103.074 18.3595 104.147 18.0947 105.341 18.0947C106.535 18.0947 107.528 18.3435 108.414 18.8411C109.302 19.3387 110 20.029 110.508 20.9119C111.017 21.7948 111.27 22.8061 111.27 23.9459C111.27 24.1545 111.259 24.3753 111.235 24.608C111.21 24.8408 111.165 25.1097 111.102 25.4146L100.96 25.4388V22.9105L109.528 22.8864L107.93 23.9459C107.914 23.2716 107.81 22.7138 107.616 22.2723C107.422 21.8309 107.136 21.4939 106.756 21.261C106.378 21.0283 105.914 20.9119 105.365 20.9119C104.784 20.9119 104.28 21.0444 103.852 21.3093C103.425 21.5741 103.094 21.9473 102.86 22.4289C102.626 22.9105 102.509 23.4964 102.509 24.1867C102.509 24.8769 102.634 25.4668 102.884 25.9564C103.134 26.446 103.49 26.8233 103.949 27.0882C104.409 27.353 104.954 27.4854 105.583 27.4854C106.164 27.4854 106.688 27.3852 107.156 27.1844C107.624 26.9838 108.036 26.6829 108.39 26.2815L110.423 28.3042C109.843 28.9783 109.141 29.484 108.318 29.8211C107.495 30.1582 106.592 30.3267 105.607 30.3267Z" fill="white"/>
<path d="M113.061 30.0622V18.3598H116.765V30.0622H113.061ZM116.765 23.6331L115.216 22.4292C115.522 21.0647 116.039 20.0052 116.765 19.2508C117.491 18.4963 118.499 18.119 119.791 18.119C120.356 18.119 120.851 18.2033 121.279 18.3719C121.706 18.5405 122.082 18.8012 122.404 19.1544L120.202 21.9235C120.04 21.7469 119.839 21.6105 119.597 21.5142C119.355 21.4179 119.08 21.3697 118.774 21.3697C118.161 21.3697 117.673 21.5583 117.31 21.9356C116.946 22.3128 116.765 22.8787 116.765 23.6331Z" fill="white"/>
</svg>
