<svg width="122" height="34" viewBox="0 0 122 34" fill="none" xmlns="http://www.w3.org/2000/svg">
<path d="M32.8244 4.84808L29.2559 1.29229C30.8512 0.745076 32.4772 0.314311 34.1225 0C33.806 1.63939 33.3736 3.25957 32.8256 4.84921L32.8244 4.84808Z" fill="#3E6588"/>
<path d="M32.7004 5.20343L28.9003 1.41699C24.0575 3.1344 19.5119 5.92363 15.6358 9.78581C15.1638 10.2561 14.7088 10.7355 14.2685 11.2251C12.0207 13.726 10.1871 16.4666 8.77212 19.361C8.67227 19.5645 8.57582 19.768 8.47937 19.9727C8.41583 20.1095 8.35342 20.2474 8.29102 20.3842L13.6649 25.7388C13.8033 25.6766 13.9406 25.6144 14.0779 25.5511C14.2844 25.4562 14.4898 25.3589 14.6929 25.2583C17.5966 23.8484 20.3482 22.0236 22.857 19.7827C23.3483 19.3452 23.8294 18.8907 24.3014 18.4203C28.1775 14.5581 30.9768 10.0289 32.7004 5.20343ZM22.857 16.4723C21.4012 17.0195 19.6969 16.7097 18.5248 15.5418C17.3538 14.375 17.0417 12.6745 17.5909 11.2251C17.7895 10.7005 18.1015 10.2087 18.5248 9.78581C20.1201 8.19617 22.7061 8.19617 24.3014 9.78581C25.8968 11.3755 25.8968 13.9521 24.3014 15.5418C23.8782 15.9635 23.3835 16.2744 22.857 16.4723Z" fill="#0E3F6A"/>
<path d="M23.5787 14.8218C23.3597 15.04 23.1169 15.2186 22.8571 15.3554C21.6974 15.9739 20.2235 15.7952 19.2465 14.8218C18.2695 13.8483 18.0902 12.3796 18.7109 11.2242C18.8494 10.9652 19.0275 10.7233 19.2465 10.5051C20.4425 9.31341 22.3828 9.31341 23.5787 10.5051C24.7747 11.6967 24.7747 13.6301 23.5787 14.8218Z" fill="#3E6588"/>
<path d="M7.56949 19.6635C5.09815 18.9343 2.43958 18.9987 0 19.8557C1.01895 19.2 2.01407 18.4899 2.97855 17.7268C4.10983 16.8325 5.2014 15.8647 6.24758 14.8222C7.39816 13.6758 8.45909 12.4739 9.42924 11.2246H12.9161C10.885 13.6068 9.21819 16.1937 7.91784 18.9105C7.7987 19.1604 7.68183 19.4114 7.56836 19.6635H7.56949Z" fill="#3E6588"/>
<path d="M14.1953 33.9998C15.0554 31.569 15.1201 28.9211 14.3882 26.4575C14.6412 26.3444 14.8931 26.228 15.1439 26.1093C17.8706 24.8136 20.4667 23.1527 22.8575 21.1289V24.6033C21.6037 25.5711 20.3975 26.6271 19.2469 27.7735C18.2008 28.816 17.2295 29.9036 16.3319 31.0308C15.566 31.993 14.8534 32.9834 14.1953 33.9987V33.9998Z" fill="#3E6588"/>
<path d="M12.6604 26.1686L10.2833 27.4767L8.38948 28.5191L8.38721 28.5202L8.78889 27.5038L9.2178 26.4173L9.21893 26.4162L9.2178 26.415V26.4173L6.67043 28.0307L5.73545 28.6231L4.80273 29.2144L5.39618 28.2839L5.98962 27.3546L5.99075 27.3523L7.61108 24.8152L6.51951 25.2426L5.49943 25.6417V25.6394L6.54561 23.7536L7.85958 21.3838L12.6604 26.1686Z" fill="#F17721"/>
<path d="M37.9848 10.4845C37.4588 10.4845 37.0097 10.3887 36.6376 10.1973C36.2655 10.0058 35.9352 9.7282 35.6465 9.36444L36.2623 8.75176C36.474 9.04534 36.7178 9.26711 36.9937 9.41708C37.2695 9.56706 37.6094 9.64204 38.0136 9.64204C38.4178 9.64204 38.7305 9.55589 38.9711 9.38358C39.2116 9.21127 39.3319 8.97513 39.3319 8.67519C39.3319 8.42629 39.2742 8.22526 39.1587 8.07209C39.0432 7.91892 38.8876 7.79288 38.692 7.69396C38.4964 7.59504 38.2831 7.5057 38.0521 7.42592C37.8212 7.34615 37.5903 7.25999 37.3593 7.16745C37.1283 7.07492 36.9167 6.96004 36.7243 6.82283C36.5318 6.68562 36.3762 6.50533 36.2575 6.28196C36.1389 6.0586 36.0795 5.77779 36.0795 5.43955C36.0795 5.06301 36.171 4.74232 36.3537 4.47747C36.5366 4.21262 36.7867 4.00839 37.1043 3.8648C37.4219 3.72121 37.7795 3.64941 38.1772 3.64941C38.6134 3.64941 39.0047 3.73397 39.3512 3.9031C39.6975 4.07222 39.9799 4.29399 40.1979 4.56841L39.5821 5.18107C39.3832 4.95133 39.17 4.77902 38.9422 4.66414C38.7145 4.54927 38.4531 4.49183 38.1579 4.49183C37.7988 4.49183 37.5132 4.57001 37.3016 4.72636C37.0899 4.88272 36.984 5.10131 36.984 5.38211C36.984 5.60548 37.0433 5.78576 37.1621 5.92298C37.2807 6.06019 37.4363 6.17666 37.6287 6.27239C37.8212 6.36812 38.0345 6.45587 38.2686 6.53564C38.5027 6.61542 38.7353 6.70317 38.9663 6.7989C39.1972 6.89463 39.4089 7.01588 39.6013 7.16267C39.7938 7.30945 39.9493 7.49932 40.0681 7.73225C40.1867 7.9652 40.246 8.25716 40.246 8.60817C40.246 9.19531 40.0423 9.65482 39.635 9.98666C39.2277 10.3185 38.6776 10.4845 37.9848 10.4845Z" fill="#0E3F6A"/>
<path d="M40.8906 6.6265V5.84153H44.0083V6.6265H40.8906ZM42.0164 10.3886V3.93652H42.8824V10.3886H42.0164Z" fill="#0E3F6A"/>
<path d="M46.6543 10.4847C46.2374 10.4847 45.8588 10.381 45.5188 10.1736C45.1789 9.96614 44.911 9.68375 44.7154 9.32636C44.5197 8.96897 44.4219 8.56691 44.4219 8.12017C44.4219 7.67344 44.5197 7.27137 44.7154 6.91399C44.911 6.55659 45.1772 6.2726 45.514 6.062C45.8508 5.8514 46.2309 5.74609 46.6543 5.74609C47.0007 5.74609 47.3102 5.81789 47.5828 5.96148C47.8555 6.10507 48.0752 6.30292 48.242 6.555C48.4088 6.80709 48.5018 7.09906 48.521 7.43092V8.79984C48.5018 9.12532 48.4104 9.4157 48.2468 9.67098C48.0832 9.92628 47.8652 10.1257 47.5925 10.2693C47.3199 10.4129 47.0072 10.4847 46.6543 10.4847ZM46.7987 9.67098C47.2285 9.67098 47.5748 9.52579 47.8379 9.23541C48.1008 8.94504 48.2324 8.57329 48.2324 8.12017C48.2324 7.80746 48.173 7.53463 48.0544 7.30169C47.9357 7.06875 47.7673 6.88687 47.5492 6.75604C47.331 6.6252 47.0777 6.55979 46.789 6.55979C46.5003 6.55979 46.2454 6.6268 46.024 6.76082C45.8027 6.89484 45.6295 7.07832 45.5044 7.31126C45.3794 7.5442 45.3168 7.81065 45.3168 8.1106C45.3168 8.41055 45.3794 8.68657 45.5044 8.91951C45.6295 9.15245 45.8044 9.33593 46.0289 9.46995C46.2534 9.60397 46.51 9.67098 46.7987 9.67098ZM48.1747 10.3889V9.16362L48.3383 8.05316L48.1747 6.95228V5.84182H49.0503V10.3889H48.1747Z" fill="#0E3F6A"/>
<path d="M50.3105 10.3889V5.84182H51.1765V10.3889H50.3105ZM51.1765 7.79469L50.8494 7.6511C50.8494 7.07035 50.984 6.60765 51.2535 6.26303C51.5229 5.9184 51.9111 5.74609 52.4178 5.74609C52.6488 5.74609 52.8573 5.78598 53.0433 5.86576C53.2293 5.94553 53.4026 6.07796 53.5629 6.26303L52.9952 6.84698C52.8989 6.74487 52.7931 6.67148 52.6776 6.6268C52.5622 6.58212 52.4274 6.55979 52.2735 6.55979C51.9527 6.55979 51.6897 6.6619 51.4844 6.86612C51.2792 7.07035 51.1765 7.37987 51.1765 7.79469Z" fill="#0E3F6A"/>
<path d="M53.7363 6.6265V5.84153H56.854V6.6265H53.7363ZM54.8621 10.3886V3.93652H55.7282V10.3886H54.8621Z" fill="#0E3F6A"/>
<path d="M59.5489 10.4847C59.1705 10.4847 58.832 10.4001 58.5337 10.231C58.2354 10.0619 58.0028 9.82732 57.8361 9.52736C57.6693 9.22741 57.5859 8.87959 57.5859 8.48391V5.8418H58.4519V8.44562C58.4519 8.69452 58.4952 8.90991 58.5819 9.09179C58.6684 9.27368 58.7951 9.41249 58.962 9.50822C59.1287 9.60394 59.3244 9.65184 59.5489 9.65184C59.8889 9.65184 60.1551 9.54491 60.3475 9.33112C60.54 9.11732 60.6362 8.82216 60.6362 8.44562V5.8418H61.5022V8.48391C61.5022 8.87959 61.4188 9.22741 61.2521 9.52736C61.0853 9.82732 60.8559 10.0619 60.564 10.231C60.2721 10.4001 59.9338 10.4847 59.5489 10.4847Z" fill="#0E3F6A"/>
<path d="M62.666 12.294V5.84182H63.532V7.03844L63.3684 8.13932L63.532 9.24977V12.294H62.666ZM65.0716 10.4847C64.7252 10.4847 64.4125 10.4129 64.1334 10.2693C63.8544 10.1257 63.6315 9.92628 63.4646 9.67098C63.2979 9.4157 63.2049 9.12532 63.1857 8.79984V7.43092C63.2049 7.09906 63.2995 6.80709 63.4695 6.555C63.6395 6.30292 63.864 6.10507 64.1431 5.96148C64.4221 5.81789 64.7316 5.74609 65.0716 5.74609C65.4886 5.74609 65.8655 5.8514 66.2022 6.062C66.539 6.2726 66.8037 6.5566 66.9961 6.91399C67.1885 7.27137 67.2848 7.67344 67.2848 8.12017C67.2848 8.56691 67.1885 8.96897 66.9961 9.32636C66.8037 9.68375 66.539 9.96614 66.2022 10.1736C65.8655 10.381 65.4886 10.4847 65.0716 10.4847ZM64.9273 9.67098C65.2159 9.67098 65.4693 9.60397 65.6875 9.46995C65.9056 9.33593 66.0787 9.15245 66.207 8.91951C66.3353 8.68657 66.3995 8.41693 66.3995 8.1106C66.3995 7.80427 66.3353 7.5426 66.207 7.30648C66.0787 7.07035 65.9056 6.88687 65.6875 6.75604C65.4693 6.6252 65.2192 6.55979 64.937 6.55979C64.6546 6.55979 64.3948 6.6252 64.1767 6.75604C63.9587 6.88687 63.7886 7.07035 63.6668 7.30648C63.5448 7.5426 63.4839 7.81384 63.4839 8.12017C63.4839 8.42651 63.5433 8.68657 63.662 8.91951C63.7806 9.15245 63.9507 9.33593 64.172 9.46995C64.3932 9.60397 64.6451 9.67098 64.9273 9.67098Z" fill="#0E3F6A"/>
<path d="M35.6465 30.0622V13.0625H39.398V30.0622H35.6465ZM38.5509 30.0622V27.1246H42.5687C43.3109 27.1246 43.8918 26.9078 44.3114 26.4745C44.7309 26.041 44.9407 25.5113 44.9407 24.8852C44.9407 24.4518 44.8439 24.0665 44.6502 23.7294C44.4566 23.3924 44.1863 23.1275 43.8394 22.9349C43.4925 22.7422 43.0689 22.6459 42.5687 22.6459H38.5509V19.7805H42.2541C42.8833 19.7805 43.3916 19.624 43.7789 19.311C44.1662 18.998 44.3598 18.5204 44.3598 17.8783C44.3598 17.2362 44.1662 16.7827 43.7789 16.4697C43.3916 16.1566 42.8833 16.0001 42.2541 16.0001H38.5509V13.0625H42.9802C44.0774 13.0625 45.0092 13.2631 45.7757 13.6644C46.5422 14.0658 47.1271 14.6036 47.5305 15.2778C47.9338 15.952 48.1356 16.6984 48.1356 17.5171C48.1356 18.5605 47.7967 19.4435 47.119 20.1657C46.4413 20.8881 45.4409 21.3857 44.1178 21.6587L44.2145 20.3825C45.6506 20.6554 46.76 21.2092 47.5425 22.044C48.3252 22.8787 48.7164 23.906 48.7164 25.126C48.7164 26.057 48.4865 26.8958 48.0266 27.6423C47.5667 28.3887 46.9052 28.9786 46.042 29.4121C45.1787 29.8455 44.142 30.0622 42.9317 30.0622H38.5509Z" fill="#0E3F6A"/>
<path d="M56.487 30.3267C55.2767 30.3267 54.1835 30.0579 53.2074 29.5201C52.2312 28.9823 51.4607 28.248 50.8959 27.3169C50.3312 26.3859 50.0488 25.3424 50.0488 24.1867C50.0488 23.0308 50.3312 21.9954 50.8959 21.0805C51.4607 20.1654 52.2271 19.4391 53.1953 18.9013C54.1634 18.3636 55.2606 18.0947 56.487 18.0947C57.7133 18.0947 58.8105 18.3595 59.7786 18.8893C60.7468 19.419 61.5132 20.1454 62.078 21.0685C62.6427 21.9915 62.9251 23.0308 62.9251 24.1867C62.9251 25.3424 62.6427 26.3859 62.078 27.3169C61.5132 28.248 60.7468 28.9823 59.7786 29.5201C58.8105 30.0579 57.7133 30.3267 56.487 30.3267ZM56.487 26.9798C57.0195 26.9798 57.4873 26.8634 57.8908 26.6306C58.2942 26.3979 58.6047 26.0688 58.8226 25.6434C59.0404 25.218 59.1494 24.7324 59.1494 24.1867C59.1494 23.6408 59.0364 23.1633 58.8104 22.7539C58.5846 22.3446 58.274 22.0236 57.8787 21.7908C57.4833 21.558 57.0195 21.4416 56.487 21.4416C55.9545 21.4416 55.5108 21.558 55.1074 21.7908C54.704 22.0236 54.3893 22.3486 54.1634 22.766C53.9375 23.1834 53.8246 23.6649 53.8246 24.2107C53.8246 24.7565 53.9375 25.218 54.1634 25.6434C54.3893 26.0688 54.704 26.3979 55.1074 26.6306C55.5108 26.8634 55.9706 26.9798 56.487 26.9798Z" fill="#0E3F6A"/>
<path d="M70.4264 30.3267C69.2162 30.3267 68.123 30.0579 67.1468 29.5201C66.1706 28.9823 65.4002 28.248 64.8354 27.3169C64.2706 26.3859 63.9883 25.3424 63.9883 24.1867C63.9883 23.0308 64.2706 21.9954 64.8354 21.0805C65.4002 20.1654 66.1666 19.4391 67.1348 18.9013C68.1028 18.3636 69.2001 18.0947 70.4264 18.0947C71.6527 18.0947 72.7499 18.3595 73.7181 18.8893C74.6863 19.419 75.4527 20.1454 76.0175 21.0685C76.5821 21.9915 76.8646 23.0308 76.8646 24.1867C76.8646 25.3424 76.5821 26.3859 76.0175 27.3169C75.4527 28.248 74.6863 28.9823 73.7181 29.5201C72.7499 30.0579 71.6527 30.3267 70.4264 30.3267ZM70.4264 26.9798C70.9589 26.9798 71.4268 26.8634 71.8302 26.6306C72.2336 26.3979 72.5442 26.0688 72.762 25.6434C72.9799 25.218 73.0888 24.7324 73.0888 24.1867C73.0888 23.6408 72.9758 23.1633 72.7499 22.7539C72.524 22.3446 72.2135 22.0236 71.8181 21.7908C71.4227 21.558 70.9589 21.4416 70.4264 21.4416C69.8939 21.4416 69.4501 21.558 69.0468 21.7908C68.6434 22.0236 68.3288 22.3486 68.1029 22.766C67.877 23.1834 67.764 23.6649 67.764 24.2107C67.764 24.7565 67.877 25.218 68.1029 25.6434C68.3288 26.0688 68.6434 26.3979 69.0468 26.6306C69.4501 26.8634 69.91 26.9798 70.4264 26.9798Z" fill="#0E3F6A"/>
<path d="M82.9884 30.3509C82.2946 30.3509 81.6128 30.2626 80.9431 30.086C80.2736 29.9095 79.6523 29.6567 79.0796 29.3275C78.5067 28.9984 78.0185 28.6172 77.6152 28.1838L79.7209 26.0648C80.1082 26.4822 80.5681 26.8073 81.1005 27.04C81.633 27.2728 82.2139 27.3892 82.8432 27.3892C83.2789 27.3892 83.6136 27.325 83.8476 27.1966C84.0816 27.0682 84.1985 26.8915 84.1985 26.6668C84.1985 26.3779 84.0573 26.1572 83.775 26.0046C83.4927 25.8522 83.1336 25.7157 82.698 25.5953C82.2623 25.4749 81.8024 25.3425 81.3183 25.198C80.8343 25.0536 80.3744 24.8529 79.9387 24.5961C79.5031 24.3392 79.1481 23.982 78.8738 23.5246C78.5995 23.067 78.4623 22.4851 78.4623 21.7788C78.4623 21.0243 78.6559 20.3702 79.0432 19.8163C79.4304 19.2625 79.9791 18.8251 80.689 18.504C81.399 18.1831 82.23 18.0225 83.182 18.0225C84.1824 18.0225 85.1062 18.1951 85.9533 18.5402C86.8004 18.8854 87.4902 19.395 88.0227 20.0692L85.917 22.1882C85.5458 21.7547 85.1304 21.4497 84.6705 21.2731C84.2107 21.0966 83.7628 21.0083 83.3272 21.0083C82.8915 21.0083 82.593 21.0685 82.3833 21.1889C82.1735 21.3092 82.0686 21.4818 82.0686 21.7066C82.0686 21.9474 82.2058 22.14 82.4801 22.2845C82.7544 22.429 83.1094 22.5574 83.5451 22.6697C83.9807 22.7821 84.4406 22.9185 84.9247 23.0791C85.4088 23.2396 85.8686 23.4563 86.3043 23.7292C86.74 24.0021 87.0949 24.3673 87.3692 24.8248C87.6436 25.2822 87.7806 25.8802 87.7806 26.6187C87.7806 27.7584 87.3491 28.6653 86.4858 29.3396C85.6226 30.0138 84.4567 30.3509 82.9884 30.3509Z" fill="#0E3F6A"/>
<path d="M88.7969 21.4907V18.3604H97.8248V21.4907H88.7969ZM91.4593 30.0628V13.5205H95.1624V30.0628H91.4593Z" fill="#0E3F6A"/>
<path d="M105.013 30.3267C103.738 30.3267 102.604 30.0659 101.612 29.5442C100.62 29.0225 99.8416 28.2961 99.2768 27.3651C98.712 26.434 98.4297 25.3826 98.4297 24.2107C98.4297 23.0389 98.7081 21.9915 99.2647 21.0685C99.8214 20.1454 100.576 19.419 101.528 18.8893C102.48 18.3595 103.553 18.0947 104.747 18.0947C105.941 18.0947 106.933 18.3435 107.82 18.8411C108.708 19.3387 109.406 20.029 109.914 20.9119C110.423 21.7948 110.676 22.8061 110.676 23.9459C110.676 24.1545 110.665 24.3753 110.641 24.608C110.616 24.8408 110.571 25.1097 110.508 25.4146L100.366 25.4388V22.9105L108.934 22.8864L107.336 23.9459C107.32 23.2716 107.216 22.7138 107.022 22.2723C106.828 21.8309 106.542 21.4939 106.162 21.261C105.783 21.0283 105.32 20.9119 104.771 20.9119C104.19 20.9119 103.686 21.0444 103.258 21.3093C102.831 21.5741 102.5 21.9473 102.266 22.4289C102.032 22.9105 101.915 23.4964 101.915 24.1867C101.915 24.8769 102.04 25.4668 102.29 25.9564C102.54 26.446 102.896 26.8233 103.355 27.0882C103.815 27.353 104.36 27.4854 104.989 27.4854C105.569 27.4854 106.094 27.3852 106.562 27.1844C107.03 26.9838 107.441 26.6829 107.796 26.2815L109.829 28.3042C109.249 28.9783 108.547 29.484 107.724 29.8211C106.901 30.1582 105.997 30.3267 105.013 30.3267Z" fill="#0E3F6A"/>
<path d="M112.467 30.0623V18.3599H116.17V30.0623H112.467ZM116.17 23.6333L114.621 22.4293C114.928 21.0648 115.444 20.0053 116.17 19.2509C116.896 18.4964 117.904 18.1191 119.196 18.1191C119.761 18.1191 120.256 18.2035 120.684 18.372C121.111 18.5406 121.487 18.8014 121.809 19.1545L119.608 21.9236C119.446 21.7471 119.244 21.6106 119.002 21.5143C118.76 21.418 118.486 21.3698 118.179 21.3698C117.566 21.3698 117.078 21.5584 116.715 21.9357C116.351 22.3129 116.17 22.8788 116.17 23.6333Z" fill="#0E3F6A"/>
</svg>
