<svg width="40" height="40" viewBox="0 0 40 40" fill="none" xmlns="http://www.w3.org/2000/svg">
<circle opacity="0.1" cx="20" cy="20" r="20" fill="#0E3F6A"/>
<path opacity="0.01" d="M8 32L32 32V8L8 8L8 32Z" fill="#0E3F6A"/>
<path d="M27.24 13.5801H26.84L23.46 10.2001C23.19 9.93006 22.75 9.93006 22.47 10.2001C22.2 10.4701 22.2 10.9101 22.47 11.1901L24.86 13.5801H15.14L17.53 11.1901C17.8 10.9201 17.8 10.4801 17.53 10.2001C17.26 9.93006 16.82 9.93006 16.54 10.2001L13.17 13.5801H12.77C11.87 13.5801 10 13.5801 10 16.1401C10 17.1101 10.2 17.7501 10.62 18.1701C10.86 18.4201 11.15 18.5501 11.46 18.6201C11.75 18.6901 12.06 18.7001 12.36 18.7001H27.64C27.95 18.7001 28.24 18.6801 28.52 18.6201C29.36 18.4201 30 17.8201 30 16.1401C30 13.5801 28.13 13.5801 27.24 13.5801Z" fill="#0E3F6A"/>
<path d="M27.0499 20H12.8699C12.2499 20 11.7799 20.55 11.8799 21.16L12.7199 26.3C12.9999 28.02 13.7499 30 17.0799 30H22.6899C26.0599 30 26.6599 28.31 27.0199 26.42L28.0299 21.19C28.1499 20.57 27.6799 20 27.0499 20ZM18.6099 26.45C18.6099 26.84 18.2999 27.15 17.9199 27.15C17.5299 27.15 17.2199 26.84 17.2199 26.45V23.15C17.2199 22.77 17.5299 22.45 17.9199 22.45C18.2999 22.45 18.6099 22.77 18.6099 23.15V26.45ZM22.8899 26.45C22.8899 26.84 22.5799 27.15 22.1899 27.15C21.8099 27.15 21.4899 26.84 21.4899 26.45V23.15C21.4899 22.77 21.8099 22.45 22.1899 22.45C22.5799 22.45 22.8899 22.77 22.8899 23.15V26.45Z" fill="#0E3F6A"/>
</svg>
