<svg width="24" height="24" viewBox="0 0 24 24" fill="none" xmlns="http://www.w3.org/2000/svg">
<g clip-path="url(#clip0_29_758)">
<path d="M18.6445 12.8739L18.6068 13.1568L18.8311 13.3331L20.8252 14.9006L18.9198 18.1953L16.5565 17.2461L16.2903 17.1392L16.0637 17.3149C15.607 17.6691 15.1063 17.9653 14.5617 18.1869L14.2954 18.2952L14.2551 18.5799L13.8979 21.1H10.093C10.0927 21.0991 10.0923 21.098 10.0919 21.0968L9.73516 18.5799L9.69482 18.2952L9.42851 18.1869C8.88638 17.9664 8.39434 17.6704 7.92265 17.3119L7.69688 17.1404L7.43374 17.2461L5.07041 18.1953L3.16508 14.9007L5.17721 13.3346L5.41228 13.1516L5.36331 12.8578C5.31904 12.5922 5.30011 12.291 5.30011 12C5.30011 11.729 5.33545 11.4294 5.38331 11.1422L5.43228 10.8484L5.19721 10.6655L3.18503 9.09932L5.08043 5.80471L7.44374 6.75399L7.70593 6.85931L7.93141 6.68904C8.39522 6.33882 8.89756 6.03322 9.43851 5.81317L9.70482 5.70484L9.74516 5.42019L10.1023 2.90002H13.9079L14.2651 5.42019L14.3054 5.70484L14.5717 5.81317C15.1138 6.0337 15.6059 6.32962 16.0776 6.68811L16.3033 6.85969L16.5665 6.75399L18.9298 5.80471L20.8351 9.09935L18.823 10.6655L18.5879 10.8484L18.6369 11.1422C18.6812 11.4081 18.7001 11.6995 18.7001 12C18.7001 12.3095 18.6814 12.5974 18.6445 12.8739ZM20.8528 9.08561C20.8529 9.08552 20.853 9.08544 20.8531 9.08535L20.853 9.08545L20.8528 9.08561ZM7.90011 12C7.90011 14.2562 9.74397 16.1 12.0001 16.1C14.2563 16.1 16.1001 14.2562 16.1001 12C16.1001 9.74388 14.2563 7.90002 12.0001 7.90002C9.74397 7.90002 7.90011 9.74388 7.90011 12Z" stroke="white"/>
</g>
<defs>
<clipPath id="clip0_29_758">
<rect width="24" height="24" fill="white"/>
</clipPath>
</defs>
</svg>
