<svg width="24" height="25" viewBox="0 0 24 25" fill="none" xmlns="http://www.w3.org/2000/svg">
<g clip-path="url(#clip0_29_777)">
<path d="M9 17.9865H7V10.9865H9V17.9865ZM13 17.9865H11V7.98645H13V17.9865ZM17 17.9865H15V13.9865H17V17.9865ZM19.5 20.0865H4.5V5.98645H19.5V20.0865ZM19.5 3.98645H4.5C3.4 3.98645 2.5 4.88645 2.5 5.98645V19.9865C2.5 21.0865 3.4 21.9865 4.5 21.9865H19.5C20.6 21.9865 21.5 21.0865 21.5 19.9865V5.98645C21.5 4.88645 20.6 3.98645 19.5 3.98645Z" fill="white"/>
</g>
<defs>
<clipPath id="clip0_29_777">
<rect width="24" height="24" fill="white" transform="translate(0 0.98645)"/>
</clipPath>
</defs>
</svg>
