<svg width="24" height="24" viewBox="0 0 24 24" fill="none" xmlns="http://www.w3.org/2000/svg">
<path fill-rule="evenodd" clip-rule="evenodd" d="M14.325 3.74994H9.67502C9.52756 4.47039 9.17174 5.13167 8.65175 5.65167C8.13175 6.17166 7.47047 6.52748 6.75002 6.67494C6.74973 6.89161 6.74973 7.10828 6.75002 7.32494C7.47047 7.4724 8.13175 7.82822 8.65175 8.34822C9.17174 8.86822 9.52756 9.52949 9.67502 10.2499H14.325C14.4725 9.52949 14.8283 8.86822 15.3483 8.34822C15.8683 7.82822 16.5296 7.4724 17.25 7.32494C17.2502 7.10828 17.2502 6.89161 17.25 6.67494C16.5296 6.52748 15.8683 6.17166 15.3483 5.65167C14.8283 5.13167 14.4725 4.47039 14.325 3.74994ZM14.93 2.25294C14.655 2.24994 14.363 2.24994 14.052 2.24994H9.94802C9.63802 2.24994 9.34502 2.24994 9.07102 2.25294C9.01641 2.24802 8.96142 2.24903 8.90702 2.25594C8.45502 2.26394 8.05402 2.28294 7.70602 2.32994C7.07802 2.41394 6.51102 2.59994 6.05602 3.05494C5.60002 3.51094 5.41402 4.07794 5.33002 4.70494C5.28302 5.05394 5.26402 5.45494 5.25602 5.90694C5.24917 5.96101 5.24817 6.01566 5.25302 6.06994C5.25002 6.34494 5.25002 6.63794 5.25002 6.94794V7.05194C5.25002 7.36194 5.25002 7.65494 5.25302 7.92994C5.24818 7.98423 5.24918 8.03887 5.25602 8.09294C5.26402 8.54594 5.28302 8.94594 5.33002 9.29394C5.41402 9.92194 5.60002 10.4889 6.05602 10.9439C6.51102 11.3999 7.07802 11.5859 7.70602 11.6699C8.05402 11.7169 8.45502 11.7359 8.90702 11.7439C8.96141 11.751 9.01641 11.752 9.07102 11.7469C9.34502 11.7499 9.63802 11.7499 9.94802 11.7499H14.052C14.362 11.7499 14.655 11.7499 14.93 11.7469C14.9843 11.7519 15.039 11.7509 15.093 11.7439C15.546 11.7359 15.947 11.7169 16.294 11.6699C16.922 11.5859 17.489 11.3999 17.944 10.9439C18.4 10.4889 18.586 9.92194 18.67 9.29394C18.7174 8.89533 18.7421 8.49435 18.744 8.09294C18.7508 8.03887 18.7518 7.98423 18.747 7.92994C18.75 7.65494 18.75 7.36194 18.75 7.05194V6.94794C18.75 6.63794 18.75 6.34494 18.747 6.06994C18.752 6.01566 18.751 5.961 18.744 5.90694C18.7419 5.50554 18.7172 5.10457 18.67 4.70594C18.586 4.07794 18.4 3.51094 17.945 3.05594C17.489 2.59994 16.922 2.41394 16.295 2.32994C15.8961 2.28267 15.4948 2.25796 15.093 2.25594C15.039 2.24907 14.9843 2.24806 14.93 2.25294ZM15.894 3.79394C16.0072 4.09312 16.1828 4.36481 16.409 4.591C16.6352 4.81719 16.9068 4.99272 17.206 5.10594C17.1997 5.03913 17.1921 4.97244 17.183 4.90594C17.122 4.44394 17.014 4.24594 16.883 4.11594C16.753 3.98594 16.556 3.87894 16.095 3.81594C16.0285 3.80726 15.9618 3.79992 15.895 3.79394M17.207 8.89394C16.9078 9.00717 16.6362 9.18269 16.41 9.40889C16.1838 9.63508 16.0082 9.90677 15.895 10.2059C15.965 10.1999 16.032 10.1919 16.095 10.1839C16.557 10.1209 16.755 10.0139 16.885 9.88394C17.015 9.75394 17.123 9.55594 17.185 9.09394C17.193 9.03094 17.201 8.96394 17.207 8.89394ZM8.10702 10.2059C7.9938 9.90677 7.81827 9.63508 7.59208 9.40889C7.36589 9.18269 7.0942 9.00717 6.79502 8.89394C6.80202 8.96394 6.80902 9.03094 6.81802 9.09394C6.88002 9.55594 6.98702 9.75394 7.11802 9.88394C7.24802 10.0139 7.44502 10.1209 7.90602 10.1839C7.97002 10.1919 8.03702 10.1999 8.10702 10.2059ZM6.79502 5.10594C7.0942 4.99272 7.36589 4.81719 7.59208 4.591C7.81827 4.36481 7.9938 4.09312 8.10702 3.79394C8.03702 3.79994 7.97002 3.80794 7.90702 3.81694C7.44502 3.87894 7.24702 3.98594 7.11702 4.11694C6.98702 4.24694 6.88002 4.44394 6.81702 4.90494L6.79502 5.10594ZM12 6.74994C11.9337 6.74994 11.8701 6.77628 11.8232 6.82317C11.7764 6.87005 11.75 6.93364 11.75 6.99994C11.75 7.06625 11.7764 7.12984 11.8232 7.17672C11.8701 7.2236 11.9337 7.24994 12 7.24994C12.0663 7.24994 12.1299 7.2236 12.1768 7.17672C12.2237 7.12984 12.25 7.06625 12.25 6.99994C12.25 6.93364 12.2237 6.87005 12.1768 6.82317C12.1299 6.77628 12.0663 6.74994 12 6.74994ZM10.25 6.99994C10.25 6.53581 10.4344 6.09069 10.7626 5.76251C11.0908 5.43432 11.5359 5.24994 12 5.24994C12.4642 5.24994 12.9093 5.43432 13.2375 5.76251C13.5656 6.09069 13.75 6.53581 13.75 6.99994C13.75 7.46407 13.5656 7.90919 13.2375 8.23738C12.9093 8.56557 12.4642 8.74994 12 8.74994C11.5359 8.74994 11.0908 8.56557 10.7626 8.23738C10.4344 7.90919 10.25 7.46407 10.25 6.99994ZM8.68402 14.4479C10.55 14.0869 12.547 14.1679 14.164 15.1319C14.39 15.2669 14.604 15.4359 14.789 15.6439C15.165 16.0669 15.359 16.5909 15.368 17.1169C15.559 16.9939 15.751 16.8569 15.945 16.7099L17.753 15.3449C18.2058 15.0121 18.7531 14.8325 19.315 14.8325C19.877 14.8325 20.4243 15.0121 20.877 15.3449C21.712 15.9749 22.046 17.1079 21.447 18.0679C21.022 18.7489 20.382 19.6919 19.73 20.2959C19.07 20.9059 18.133 21.4199 17.424 21.7619C16.562 22.1779 15.632 22.4079 14.727 22.5539C12.877 22.8539 10.953 22.8079 9.12502 22.4309C8.18234 22.2369 7.22246 22.1388 6.26002 22.1379H4.00002C3.80111 22.1379 3.61034 22.0589 3.46969 21.9183C3.32904 21.7776 3.25002 21.5869 3.25002 21.3879C3.25002 21.189 3.32904 20.9983 3.46969 20.8576C3.61034 20.717 3.80111 20.6379 4.00002 20.6379H6.26002C7.32202 20.6379 8.39502 20.7489 9.42802 20.9619C11.0942 21.3038 12.8085 21.3414 14.488 21.0729C15.316 20.9389 16.09 20.7399 16.772 20.4109C17.455 20.0809 18.223 19.6469 18.71 19.1959C19.203 18.7389 19.754 17.9479 20.175 17.2739C20.302 17.0699 20.284 16.7769 19.973 16.5419C19.603 16.2619 19.026 16.2619 18.657 16.5419L16.85 17.9069C16.128 18.4519 15.24 19.0349 14.139 19.2109C14.0237 19.2292 13.908 19.2452 13.792 19.2589C13.0913 19.3398 12.3841 19.3465 11.682 19.2789C11.5822 19.272 11.4848 19.2453 11.3955 19.2001C11.3062 19.155 11.2269 19.0925 11.1621 19.0163C11.0973 18.94 11.0485 18.8516 11.0184 18.7562C10.9883 18.6608 10.9777 18.5603 10.987 18.4607C10.9963 18.3611 11.0255 18.2644 11.0728 18.1762C11.1201 18.0881 11.1845 18.0103 11.2623 17.9474C11.3401 17.8845 11.4297 17.8378 11.5259 17.8101C11.622 17.7824 11.7227 17.7742 11.822 17.7859C12.3768 17.8398 12.9355 17.8388 13.49 17.7829L13.52 17.7799C13.6133 17.722 13.6926 17.6442 13.7522 17.5519C13.8117 17.4596 13.85 17.3553 13.8644 17.2464C13.8787 17.1376 13.8688 17.0269 13.8351 16.9224C13.8015 16.8178 13.7451 16.722 13.67 16.6419C13.5903 16.5542 13.4976 16.4793 13.395 16.4199C12.214 15.7149 10.636 15.5979 8.96902 15.9199C7.34077 16.2475 5.79719 16.9061 4.43402 17.8549C4.35365 17.9119 4.26285 17.9525 4.16678 17.9744C4.07072 17.9963 3.97129 17.9991 3.87416 17.9826C3.77703 17.966 3.6841 17.9305 3.60069 17.8781C3.51728 17.8257 3.44502 17.7573 3.38802 17.6769C3.33103 17.5966 3.29042 17.5058 3.26852 17.4097C3.24662 17.3136 3.24386 17.2142 3.26039 17.1171C3.27692 17.0199 3.31242 16.927 3.36486 16.8436C3.4173 16.7602 3.48565 16.6879 3.56602 16.6309C5.10367 15.5589 6.84601 14.8158 8.68402 14.4479Z" fill="white"/>
</svg>
