<svg width="40" height="40" viewBox="0 0 40 40" fill="none" xmlns="http://www.w3.org/2000/svg">
<path d="M20.0001 11C18.7301 11 17.6001 11.8 17.1801 13H11.0001V15H12.9501L10.0001 22C9.53005 24 11.0001 25 13.5001 25C16.0001 25 17.5601 24 17.0001 22L14.0501 15H17.1701C17.5001 15.85 18.1501 16.5 19.0001 16.83V28H10.0001V30H30.0001V28H21.0001V16.82C21.8501 16.5 22.5001 15.85 22.8201 15H25.9501L23.0001 22C22.5301 24 24.0001 25 26.5001 25C29.0001 25 30.5601 24 30.0001 22L27.0501 15H29.0001V13H22.8301C22.4001 11.8 21.2701 11 20.0001 11ZM20.0001 13C20.2653 13 20.5196 13.1054 20.7072 13.2929C20.8947 13.4804 21.0001 13.7348 21.0001 14C21.0001 14.2652 20.8947 14.5196 20.7072 14.7071C20.5196 14.8946 20.2653 15 20.0001 15C19.7348 15 19.4805 14.8946 19.2929 14.7071C19.1054 14.5196 19.0001 14.2652 19.0001 14C19.0001 13.7348 19.1054 13.4804 19.2929 13.2929C19.4805 13.1054 19.7348 13 20.0001 13ZM13.5001 18.25L15.0001 22H12.0001L13.5001 18.25ZM26.5001 18.25L28.0001 22H25.0001L26.5001 18.25Z" fill="#0E3F6A"/>
<circle opacity="0.15" cx="20" cy="20" r="20" fill="#0E3F6A"/>
</svg>
