<svg width="24" height="25" viewBox="0 0 24 25" fill="none" xmlns="http://www.w3.org/2000/svg">
<path d="M2.40073 18.9865C2.15073 18.8532 1.97973 18.6575 1.88773 18.3995C1.79639 18.1408 1.81739 17.8865 1.95073 17.6365L7.05073 7.43651C7.18406 7.18651 7.38006 7.01584 7.63873 6.92451C7.89673 6.83251 8.15073 6.85317 8.40073 6.98651C8.65073 7.11984 8.82173 7.31551 8.91373 7.57351C9.00506 7.83217 8.98406 8.08651 8.85073 8.33651L3.75073 18.5365C3.61739 18.7865 3.42173 18.9572 3.16373 19.0485C2.90506 19.1405 2.65073 19.1198 2.40073 18.9865ZM9.00073 18.9865C8.75073 18.8532 8.58006 18.6575 8.48873 18.3995C8.39673 18.1408 8.41739 17.8865 8.55073 17.6365L13.6507 7.43651C13.7841 7.18651 13.9801 7.01584 14.2387 6.92451C14.4967 6.83251 14.7507 6.85317 15.0007 6.98651C15.2507 7.11984 15.4214 7.31551 15.5127 7.57351C15.6047 7.83217 15.5841 8.08651 15.4507 8.33651L10.3507 18.5365C10.2174 18.7865 10.0214 18.9572 9.76273 19.0485C9.50473 19.1405 9.25073 19.1198 9.00073 18.9865ZM15.6007 18.9865C15.3507 18.8532 15.1801 18.6575 15.0887 18.3995C14.9967 18.1408 15.0174 17.8865 15.1507 17.6365L20.2507 7.43651C20.3841 7.18651 20.5801 7.01584 20.8387 6.92451C21.0967 6.83251 21.3507 6.85317 21.6007 6.98651C21.8507 7.11984 22.0217 7.31551 22.1137 7.57351C22.2051 7.83217 22.1841 8.08651 22.0507 8.33651L16.9507 18.5365C16.8174 18.7865 16.6217 18.9572 16.3637 19.0485C16.1051 19.1405 15.8507 19.1198 15.6007 18.9865Z" fill="white"/>
</svg>
