<!-- <svg width="40" height="40" viewBox="0 0 40 40" fill="none" xmlns="http://www.w3.org/2000/svg">
<circle opacity="0.1" cx="20" cy="20" r="20" fill="#0E3F6A"/>
<path opacity="0.01" d="M8 32L32 32V8L8 8L8 32Z" fill="#0E3F6A"/>
<path d="M27.24 13.5801H26.84L23.46 10.2001C23.19 9.93006 22.75 9.93006 22.47 10.2001C22.2 10.4701 22.2 10.9101 22.47 11.1901L24.86 13.5801H15.14L17.53 11.1901C17.8 10.9201 17.8 10.4801 17.53 10.2001C17.26 9.93006 16.82 9.93006 16.54 10.2001L13.17 13.5801H12.77C11.87 13.5801 10 13.5801 10 16.1401C10 17.1101 10.2 17.7501 10.62 18.1701C10.86 18.4201 11.15 18.5501 11.46 18.6201C11.75 18.6901 12.06 18.7001 12.36 18.7001H27.64C27.95 18.7001 28.24 18.6801 28.52 18.6201C29.36 18.4201 30 17.8201 30 16.1401C30 13.5801 28.13 13.5801 27.24 13.5801Z" fill="#0E3F6A"/>
<path d="M27.0499 20H12.8699C12.2499 20 11.7799 20.55 11.8799 21.16L12.7199 26.3C12.9999 28.02 13.7499 30 17.0799 30H22.6899C26.0599 30 26.6599 28.31 27.0199 26.42L28.0299 21.19C28.1499 20.57 27.6799 20 27.0499 20ZM18.6099 26.45C18.6099 26.84 18.2999 27.15 17.9199 27.15C17.5299 27.15 17.2199 26.84 17.2199 26.45V23.15C17.2199 22.77 17.5299 22.45 17.9199 22.45C18.2999 22.45 18.6099 22.77 18.6099 23.15V26.45ZM22.8899 26.45C22.8899 26.84 22.5799 27.15 22.1899 27.15C21.8099 27.15 21.4899 26.84 21.4899 26.45V23.15C21.4899 22.77 21.8099 22.45 22.1899 22.45C22.5799 22.45 22.8899 22.77 22.8899 23.15V26.45Z" fill="#0E3F6A"/>
</svg> -->

<svg width="40" height="40" viewBox="0 0 40 40" fill="none" xmlns="http://www.w3.org/2000/svg">
<circle opacity="0.1" cx="20" cy="20" r="20" fill="#0E3F6A"/>
<path fill-rule="evenodd" clip-rule="evenodd" d="M20.0196 11C17.646 11 15.4837 11.7461 14.2042 12.3556C14.0886 12.4106 13.9808 12.4646 13.8805 12.5166C13.6819 12.6196 13.5127 12.7156 13.3781 12.8002L14.8337 14.8393L15.5189 15.0988C18.1967 16.3844 21.7878 16.3844 24.4661 15.0988L25.2438 14.7148L26.62 12.8002C26.335 12.6232 26.0385 12.4633 25.7325 12.3216C24.4593 11.7186 22.3485 11 20.0201 11M16.635 13.3082C16.1196 13.2164 15.6105 13.0948 15.1106 12.9442C16.3092 12.4376 18.0953 11.9001 20.0201 11.9001C21.3532 11.9001 22.6138 12.1581 23.6564 12.4851C22.4346 12.6486 21.1309 12.9262 19.8887 13.2677C18.9113 13.5367 17.769 13.5077 16.635 13.3082ZM25.0215 15.8404L24.8923 15.9024C21.9465 17.3165 18.0391 17.3165 15.0933 15.9024L14.9708 15.8434C10.5448 20.4643 7.16601 29 20.0196 29C32.8731 29 29.4124 20.3058 25.0215 15.8404ZM19.4736 20.0007C19.1949 20.0007 18.9276 20.1061 18.7305 20.2937C18.5334 20.4812 18.4227 20.7356 18.4227 21.0008C18.4227 21.2661 18.5334 21.5204 18.7305 21.708C18.9276 21.8956 19.1949 22.0009 19.4736 22.0009V20.0007ZM20.5245 19.0007V18.5006H19.4736V19.0007C18.9161 19.0007 18.3815 19.2114 17.9873 19.5865C17.5932 19.9616 17.3717 20.4704 17.3717 21.0008C17.3717 21.5313 17.5932 22.0401 17.9873 22.4152C18.3815 22.7903 18.9161 23.001 19.4736 23.001V25.0012C19.0164 25.0012 18.6271 24.7236 18.482 24.3346C18.4605 24.271 18.4258 24.2121 18.38 24.1614C18.3341 24.1108 18.278 24.0694 18.2151 24.0397C18.1521 24.01 18.0835 23.9926 18.0134 23.9886C17.9433 23.9846 17.873 23.994 17.8068 24.0163C17.7405 24.0385 17.6796 24.0732 17.6277 24.1183C17.5758 24.1633 17.5339 24.2178 17.5045 24.2786C17.4751 24.3393 17.4588 24.405 17.4566 24.4719C17.4544 24.5387 17.4662 24.6053 17.4915 24.6676C17.6365 25.0577 17.9049 25.3953 18.2599 25.6342C18.6148 25.873 19.0389 26.0012 19.4736 26.0013V26.5013H20.5245V26.0013C21.082 26.0013 21.6166 25.7905 22.0108 25.4154C22.405 25.0403 22.6264 24.5316 22.6264 24.0011C22.6264 23.4706 22.405 22.9619 22.0108 22.5868C21.6166 22.2116 21.082 22.0009 20.5245 22.0009V20.0007C20.9817 20.0007 21.3711 20.2783 21.5161 20.6673C21.5376 20.731 21.5723 20.7898 21.6182 20.8405C21.664 20.8912 21.7201 20.9326 21.7831 20.9622C21.846 20.9919 21.9146 21.0093 21.9847 21.0133C22.0549 21.0173 22.1251 21.0079 22.1914 20.9856C22.2576 20.9634 22.3185 20.9287 22.3704 20.8836C22.4223 20.8386 22.4642 20.7841 22.4936 20.7233C22.523 20.6626 22.5393 20.5969 22.5415 20.5301C22.5438 20.4632 22.5319 20.3967 22.5066 20.3343C22.3617 19.9443 22.0932 19.6066 21.7383 19.3678C21.3833 19.1289 20.9593 19.0007 20.5245 19.0007ZM20.5245 23.001V25.0012C20.8033 25.0012 21.0706 24.8958 21.2677 24.7083C21.4648 24.5207 21.5755 24.2663 21.5755 24.0011C21.5755 23.7358 21.4648 23.4815 21.2677 23.2939C21.0706 23.1064 20.8033 23.001 20.5245 23.001Z" fill="#0E3F6A"/>
</svg>
